<svg width="637" height="222" xmlns="http://www.w3.org/2000/svg" xmlns:xlink="http://www.w3.org/1999/xlink" overflow="hidden"><defs><clipPath id="clip0"><path d="M156 65 793 65 793 287 156 287Z" fill-rule="evenodd" clip-rule="evenodd"/></clipPath><clipPath id="clip1"><path d="M156-7 300-7 300 195 156 195Z" fill-rule="evenodd" clip-rule="evenodd"/></clipPath><clipPath id="clip2"><path d="M156-7 300-7 300 195 156 195Z" fill-rule="evenodd" clip-rule="evenodd"/></clipPath><clipPath id="clip3"><path d="M299-7 444-7 444 195 299 195Z" fill-rule="evenodd" clip-rule="evenodd"/></clipPath><clipPath id="clip4"><path d="M156 55 300 55 300 258 156 258Z" fill-rule="evenodd" clip-rule="evenodd"/></clipPath><clipPath id="clip5"><path d="M299 55 444 55 444 258 299 258Z" fill-rule="evenodd" clip-rule="evenodd"/></clipPath><clipPath id="clip6"><path d="M156 95 300 95 300 298 156 298Z" fill-rule="evenodd" clip-rule="evenodd"/></clipPath><clipPath id="clip7"><path d="M299 95 444 95 444 298 299 298Z" fill-rule="evenodd" clip-rule="evenodd"/></clipPath><clipPath id="clip8"><path d="M156 135 300 135 300 337 156 337Z" fill-rule="evenodd" clip-rule="evenodd"/></clipPath><clipPath id="clip9"><path d="M299 135 444 135 444 337 299 337Z" fill-rule="evenodd" clip-rule="evenodd"/></clipPath><clipPath id="clip10"><path d="M539-14 606-14 606 189 539 189Z" fill-rule="evenodd" clip-rule="evenodd"/></clipPath><clipPath id="clip11"><path d="M605-14 668-14 668 189 605 189Z" fill-rule="evenodd" clip-rule="evenodd"/></clipPath><clipPath id="clip12"><path d="M539 29 606 29 606 231 539 231Z" fill-rule="evenodd" clip-rule="evenodd"/></clipPath><clipPath id="clip13"><path d="M605 29 668 29 668 231 605 231Z" fill-rule="evenodd" clip-rule="evenodd"/></clipPath><clipPath id="clip14"><path d="M667 29 790 29 790 231 667 231Z" fill-rule="evenodd" clip-rule="evenodd"/></clipPath><clipPath id="clip15"><path d="M539 71 606 71 606 274 539 274Z" fill-rule="evenodd" clip-rule="evenodd"/></clipPath><clipPath id="clip16"><path d="M605 71 668 71 668 274 605 274Z" fill-rule="evenodd" clip-rule="evenodd"/></clipPath><clipPath id="clip17"><path d="M667 71 790 71 790 274 667 274Z" fill-rule="evenodd" clip-rule="evenodd"/></clipPath><clipPath id="clip18"><path d="M539 114 606 114 606 316 539 316Z" fill-rule="evenodd" clip-rule="evenodd"/></clipPath><clipPath id="clip19"><path d="M605 114 668 114 668 316 605 316Z" fill-rule="evenodd" clip-rule="evenodd"/></clipPath><clipPath id="clip20"><path d="M667 114 790 114 790 316 667 316Z" fill-rule="evenodd" clip-rule="evenodd"/></clipPath><clipPath id="clip21"><path d="M539 156 606 156 606 359 539 359Z" fill-rule="evenodd" clip-rule="evenodd"/></clipPath><clipPath id="clip22"><path d="M605 156 668 156 668 359 605 359Z" fill-rule="evenodd" clip-rule="evenodd"/></clipPath><clipPath id="clip23"><path d="M667 156 790 156 790 359 667 359Z" fill-rule="evenodd" clip-rule="evenodd"/></clipPath></defs><g clip-path="url(#clip0)" transform="translate(-156 -65)"><path d="M156.923 74.7692 300 74.7692 300 137.505 156.923 137.505Z" fill="#4472C4" fill-rule="evenodd"/><path d="M300 74.7692 443.077 74.7692 443.077 137.505 300 137.505Z" fill="#4472C4" fill-rule="evenodd"/><path d="M156.923 137.505 300 137.505 300 177.131 156.923 177.131Z" fill="#8FAADC" fill-rule="evenodd"/><path d="M300 137.505 443.077 137.505 443.077 177.131 300 177.131Z" fill="#8FAADC" fill-rule="evenodd"/><path d="M156.923 177.131 300 177.131 300 216.758 156.923 216.758Z" fill="#FFC000" fill-rule="evenodd"/><path d="M300 177.131 443.077 177.131 443.077 216.758 300 216.758Z" fill="#FFC000" fill-rule="evenodd"/><path d="M156.923 216.758 300 216.758 300 256.384 156.923 256.384Z" fill="#CFD5EA" fill-rule="evenodd"/><path d="M300 216.758 443.077 216.758 443.077 256.384 300 256.384Z" fill="#CFD5EA" fill-rule="evenodd"/><path d="M300 74.1026 300 257.051" stroke="#FFFFFF" stroke-width="1.33333" stroke-linejoin="round" stroke-miterlimit="10" fill="none" fill-rule="evenodd"/><path d="M156.256 137.505 443.744 137.505" stroke="#FFFFFF" stroke-width="4" stroke-linejoin="round" stroke-miterlimit="10" fill="none" fill-rule="evenodd"/><path d="M156.256 177.131 443.744 177.131" stroke="#FFFFFF" stroke-width="1.33333" stroke-linejoin="round" stroke-miterlimit="10" fill="none" fill-rule="evenodd"/><path d="M156.256 216.758 443.744 216.758" stroke="#FFFFFF" stroke-width="1.33333" stroke-linejoin="round" stroke-miterlimit="10" fill="none" fill-rule="evenodd"/><path d="M156.923 74.1026 156.923 257.051" stroke="#FFFFFF" stroke-width="1.33333" stroke-linejoin="round" stroke-miterlimit="10" fill="none" fill-rule="evenodd"/><path d="M443.077 74.1026 443.077 257.051" stroke="#FFFFFF" stroke-width="1.33333" stroke-linejoin="round" stroke-miterlimit="10" fill="none" fill-rule="evenodd"/><path d="M156.256 74.7692 443.744 74.7692" stroke="#FFFFFF" stroke-width="1.33333" stroke-linejoin="round" stroke-miterlimit="10" fill="none" fill-rule="evenodd"/><path d="M156.256 256.384 443.744 256.384" stroke="#FFFFFF" stroke-width="1.33333" stroke-linejoin="round" stroke-miterlimit="10" fill="none" fill-rule="evenodd"/><g clip-path="url(#clip1)"><text fill="#FFFFFF" font-family="DengXian,DengXian_MSFontService,sans-serif" font-weight="700" font-size="24" transform="translate(166.523 102)">CMP</text></g><g clip-path="url(#clip2)"><text fill="#FFFFFF" font-family="DengXian,DengXian_MSFontService,sans-serif" font-weight="700" font-size="24" transform="translate(217.523 102)">的结果</text></g><g clip-path="url(#clip3)"><text fill="#FFFFFF" font-family="DengXian,DengXian_MSFontService,sans-serif" font-weight="700" font-size="24" transform="translate(309.6 102)">标志</text></g><g clip-path="url(#clip4)"><text font-family="DengXian,DengXian_MSFontService,sans-serif" font-weight="400" font-size="24" transform="translate(166.523 164)">目的</text></g><text font-family="DengXian,DengXian_MSFontService,sans-serif" font-weight="400" font-size="24" transform="translate(221.023 164)">&lt; 源</text><g clip-path="url(#clip5)"><text font-family="DengXian,DengXian_MSFontService,sans-serif" font-weight="400" font-size="24" transform="translate(309.6 164)">SF </text></g><text font-family="Cambria Math,Cambria Math_MSFontService,sans-serif" font-weight="400" font-size="24" transform="translate(339.933 164)">≠<tspan font-family="DengXian,DengXian_MSFontService,sans-serif" x="24.5" y="0">OF</tspan></text><g clip-path="url(#clip6)"><text font-family="DengXian,DengXian_MSFontService,sans-serif" font-weight="400" font-size="24" transform="translate(166.523 204)">目的</text></g><text font-family="DengXian,DengXian_MSFontService,sans-serif" font-weight="400" font-size="24" transform="translate(221.023 204)">&gt; 源</text><g clip-path="url(#clip7)"><text font-family="DengXian,DengXian_MSFontService,sans-serif" font-weight="400" font-size="24" transform="translate(309.6 204)">SF = OF</text></g><g clip-path="url(#clip8)"><text font-family="DengXian,DengXian_MSFontService,sans-serif" font-weight="400" font-size="24" transform="translate(166.523 244)">目的</text></g><text font-family="DengXian,DengXian_MSFontService,sans-serif" font-weight="400" font-size="24" transform="translate(221.023 244)">= 源</text><g clip-path="url(#clip9)"><text font-family="DengXian,DengXian_MSFontService,sans-serif" font-weight="400" font-size="24" transform="translate(309.6 244)">ZF = 1</text></g><path d="M540 68.3075 605.538 68.3075 605.538 110.769 540 110.769Z" fill="#4472C4" fill-rule="evenodd"/><path d="M605.538 68.3075 667.385 68.3075 667.385 110.769 605.538 110.769Z" fill="#4472C4" fill-rule="evenodd"/><path d="M667.385 68.3075 789.231 68.3075 789.231 110.769 667.385 110.769Z" fill="#4472C4" fill-rule="evenodd"/><path d="M540 110.769 605.538 110.769 605.538 153.231 540 153.231Z" fill="#FFC000" fill-rule="evenodd"/><path d="M605.538 110.769 667.385 110.769 667.385 153.231 605.538 153.231Z" fill="#FFC000" fill-rule="evenodd"/><path d="M667.385 110.769 789.231 110.769 789.231 153.231 667.385 153.231Z" fill="#FFC000" fill-rule="evenodd"/><path d="M540 153.231 605.538 153.231 605.538 195.692 540 195.692Z" fill="#8FAADC" fill-rule="evenodd"/><path d="M605.538 153.231 667.385 153.231 667.385 195.692 605.538 195.692Z" fill="#8FAADC" fill-rule="evenodd"/><path d="M667.385 153.231 789.231 153.231 789.231 195.692 667.385 195.692Z" fill="#8FAADC" fill-rule="evenodd"/><path d="M540 195.692 605.538 195.692 605.538 238.154 540 238.154Z" fill="#8FAADC" fill-rule="evenodd"/><path d="M605.538 195.692 667.385 195.692 667.385 238.154 605.538 238.154Z" fill="#8FAADC" fill-rule="evenodd"/><path d="M667.385 195.692 789.231 195.692 789.231 238.154 667.385 238.154Z" fill="#8FAADC" fill-rule="evenodd"/><path d="M540 238.154 605.538 238.154 605.538 280.615 540 280.615Z" fill="#FFC000" fill-rule="evenodd"/><path d="M605.538 238.154 667.385 238.154 667.385 280.615 605.538 280.615Z" fill="#FFC000" fill-rule="evenodd"/><path d="M667.385 238.154 789.231 238.154 789.231 280.615 667.385 280.615Z" fill="#FFC000" fill-rule="evenodd"/><path d="M605.538 67.6408 605.538 281.282" stroke="#FFFFFF" stroke-width="1.33333" stroke-linejoin="round" stroke-miterlimit="10" fill="none" fill-rule="evenodd"/><path d="M667.385 67.6408 667.385 281.282" stroke="#FFFFFF" stroke-width="1.33333" stroke-linejoin="round" stroke-miterlimit="10" fill="none" fill-rule="evenodd"/><path d="M539.333 110.769 789.898 110.769" stroke="#FFFFFF" stroke-width="4" stroke-linejoin="round" stroke-miterlimit="10" fill="none" fill-rule="evenodd"/><path d="M539.333 153.231 789.898 153.231" stroke="#FFFFFF" stroke-width="1.33333" stroke-linejoin="round" stroke-miterlimit="10" fill="none" fill-rule="evenodd"/><path d="M539.333 195.692 789.898 195.692" stroke="#FFFFFF" stroke-width="1.33333" stroke-linejoin="round" stroke-miterlimit="10" fill="none" fill-rule="evenodd"/><path d="M539.333 238.154 789.898 238.154" stroke="#FFFFFF" stroke-width="1.33333" stroke-linejoin="round" stroke-miterlimit="10" fill="none" fill-rule="evenodd"/><path d="M540 67.6408 540 281.282" stroke="#FFFFFF" stroke-width="1.33333" stroke-linejoin="round" stroke-miterlimit="10" fill="none" fill-rule="evenodd"/><path d="M789.231 67.6408 789.231 281.282" stroke="#FFFFFF" stroke-width="1.33333" stroke-linejoin="round" stroke-miterlimit="10" fill="none" fill-rule="evenodd"/><path d="M539.333 68.3075 789.898 68.3075" stroke="#FFFFFF" stroke-width="1.33333" stroke-linejoin="round" stroke-miterlimit="10" fill="none" fill-rule="evenodd"/><path d="M539.333 280.615 789.898 280.615" stroke="#FFFFFF" stroke-width="1.33333" stroke-linejoin="round" stroke-miterlimit="10" fill="none" fill-rule="evenodd"/><g clip-path="url(#clip10)"><text fill="#FFFFFF" font-family="DengXian,DengXian_MSFontService,sans-serif" font-weight="700" font-size="24" transform="translate(549.6 95)">OF</text></g><g clip-path="url(#clip11)"><text fill="#FFFFFF" font-family="DengXian,DengXian_MSFontService,sans-serif" font-weight="700" font-size="24" transform="translate(615.138 95)">SF</text></g><g clip-path="url(#clip12)"><text font-family="DengXian,DengXian_MSFontService,sans-serif" font-weight="400" font-size="24" transform="translate(549.6 138)">0</text></g><g clip-path="url(#clip13)"><text font-family="DengXian,DengXian_MSFontService,sans-serif" font-weight="400" font-size="24" transform="translate(615.138 138)">0</text></g><g clip-path="url(#clip14)"><text font-family="DengXian,DengXian_MSFontService,sans-serif" font-weight="400" font-size="24" transform="translate(676.985 138)">结果为正</text></g><g clip-path="url(#clip15)"><text font-family="DengXian,DengXian_MSFontService,sans-serif" font-weight="400" font-size="24" transform="translate(549.6 180)">0</text></g><g clip-path="url(#clip16)"><text font-family="DengXian,DengXian_MSFontService,sans-serif" font-weight="400" font-size="24" transform="translate(615.138 180)">1</text></g><g clip-path="url(#clip17)"><text font-family="DengXian,DengXian_MSFontService,sans-serif" font-weight="400" font-size="24" transform="translate(676.985 180)">结果为负</text></g><g clip-path="url(#clip18)"><text font-family="DengXian,DengXian_MSFontService,sans-serif" font-weight="400" font-size="24" transform="translate(549.6 222)">1</text></g><g clip-path="url(#clip19)"><text font-family="DengXian,DengXian_MSFontService,sans-serif" font-weight="400" font-size="24" transform="translate(615.138 222)">0</text></g><g clip-path="url(#clip20)"><text font-family="DengXian,DengXian_MSFontService,sans-serif" font-weight="400" font-size="24" transform="translate(676.985 222)">下溢</text></g><g clip-path="url(#clip21)"><text font-family="DengXian,DengXian_MSFontService,sans-serif" font-weight="400" font-size="24" transform="translate(549.6 265)">1</text></g><g clip-path="url(#clip22)"><text font-family="DengXian,DengXian_MSFontService,sans-serif" font-weight="400" font-size="24" transform="translate(615.138 265)">1</text></g><g clip-path="url(#clip23)"><text font-family="DengXian,DengXian_MSFontService,sans-serif" font-weight="400" font-size="24" transform="translate(676.985 265)">上溢</text></g><path d="M0.76268-1.29163 91.2275 52.1257 89.7022 54.709-0.76268 1.29163ZM91.4613 48.7798 96.923 57.2308 86.8852 56.5296Z" fill="#ED7D31" transform="matrix(-1 -8.74228e-08 -8.74228e-08 1 540.423 137.5)"/><path d="M539.559 264.034 448.766 200.047 450.495 197.595 541.287 261.582ZM448.264 203.363 443.5 194.5 453.449 196.006Z" fill="#ED7D31"/><path d="M540.115 176.276 450.533 157.506 451.148 154.57 540.731 173.339ZM451.386 160.75 443.5 154.5 453.232 151.941Z" fill="#4472C4"/><path d="M539.761 215.501 449.569 171.155 450.892 168.463 541.085 212.809ZM449.591 174.509 443.5 166.5 453.562 166.433Z" fill="#4472C4"/></g></svg>